{"asset":{"generator":"Khronos glTF Blender I/O v4.2.60","version":"2.0"},"scene":0,"scenes":[{"name":"Scene","nodes":[0]}],"nodes":[{"mesh":0,"name":"Lowpoly_Notebook_Cube.001","rotation":[0.7071068286895752,0,0,0.7071068286895752],"scale":[0.6000000238418579,0.6000000238418579,0.6000000238418579],"translation":[0,0,0]}],"materials":[{"doubleSided":true,"name":"Lowpoly_Body","pbrMetallicRoughness":{"baseColorTexture":{"index":0,"texCoord":0},"metallicRoughnessTexture":{"index":1,"texCoord":0},"roughnessFactor":0.6900347471237183,"baseColorFactor":[1,1,1,1],"metallicFactor":1},"emissiveFactor":[0,0,0],"alphaMode":"OPAQUE"},{"doubleSided":true,"name":"Lowpoly_Screen","pbrMetallicRoughness":{"baseColorTexture":{"index":2,"texCoord":0},"metallicRoughnessTexture":{"index":3,"texCoord":0},"roughnessFactor":0.6900347471237183,"baseColorFactor":[1,1,1,1],"metallicFactor":1},"emissiveFactor":[0,0,0],"alphaMode":"OPAQUE"}],"meshes":[{"name":"Lowpoly_Notebook_Cube.001","primitives":[{"attributes":{"POSITION":0,"NORMAL":1,"TEXCOORD_0":2},"indices":3,"material":0,"mode":4},{"attributes":{"POSITION":4,"NORMAL":5,"TEXCOORD_0":6},"indices":7,"material":1,"mode":4}]}],"textures":[{"sampler":0,"source":0},{"sampler":0,"source":1},{"sampler":0,"source":2},{"sampler":0,"source":1}],"images":[{"bufferView":8,"mimeType":"image/jpeg","name":"Lowpoly_Laptop_2"},{"bufferView":9,"mimeType":"image/png","name":"Image"},{"bufferView":10,"mimeType":"image/jpeg","name":"Lowpoly_Laptop_1"}],"accessors":[{"bufferView":0,"componentType":5126,"count":170,"max":[0.2218320071697235,1.6376889944076538,0.12090999633073807],"min":[-1.999521017074585,-1.6349689960479736,-0.07101000100374222],"type":"VEC3","byteOffset":0},{"bufferView":1,"componentType":5126,"count":170,"type":"VEC3","byteOffset":0},{"bufferView":2,"componentType":5126,"count":170,"type":"VEC2","byteOffset":0},{"bufferView":3,"componentType":5123,"count":348,"type":"SCALAR","byteOffset":0},{"bufferView":4,"componentType":5126,"count":197,"max":[0.28941598534584045,1.6324089765548706,0.007116000168025494],"min":[0.13629400730133057,-1.6291929483413696,-2.222398042678833],"type":"VEC3","byteOffset":0},{"bufferView":5,"componentType":5126,"count":197,"type":"VEC3","byteOffset":0},{"bufferView":6,"componentType":5126,"count":197,"type":"VEC2","byteOffset":0},{"bufferView":7,"componentType":5123,"count":483,"type":"SCALAR","byteOffset":0}],"bufferViews":[{"buffer":0,"byteLength":2040,"byteOffset":0,"target":34962,"byteStride":12},{"buffer":0,"byteLength":2040,"byteOffset":2040,"target":34962,"byteStride":12},{"buffer":0,"byteLength":1360,"byteOffset":4080,"target":34962,"byteStride":8},{"buffer":0,"byteLength":696,"byteOffset":5440,"target":34963},{"buffer":0,"byteLength":2364,"byteOffset":6136,"target":34962,"byteStride":12},{"buffer":0,"byteLength":2364,"byteOffset":8504,"target":34962,"byteStride":12},{"buffer":0,"byteLength":1576,"byteOffset":10872,"target":34962,"byteStride":8},{"buffer":0,"byteLength":966,"byteOffset":12448,"target":34963},{"buffer":0,"byteOffset":13416,"byteLength":758037},{"buffer":0,"byteOffset":771456,"byteLength":243},{"buffer":0,"byteOffset":771704,"byteLength":873512}],"samplers":[{"magFilter":9729,"minFilter":9987,"wrapS":10497,"wrapT":10497}],"buffers":[{"name":"buffer","byteLength":1645216,"uri":"data:application/octet-stream;base64,"}]}
