{"asset":{"generator":"Khronos glTF Blender I/O v4.2.70","version":"2.0"},"extensionsUsed":["KHR_materials_specular","KHR_materials_ior"],"scene":0,"scenes":[{"name":"Scene","nodes":[0,1]}],"nodes":[{"mesh":0,"name":"leaf_Plane.010","rotation":[0.7071068286895752,0,0,0.7071068286895752],"translation":[0,0,0],"scale":[1,1,1]},{"mesh":1,"name":"maceta_Cylinder","rotation":[0.7071068286895752,0,0,0.7071068286895752],"translation":[0,0,0],"scale":[1,1,1]}],"materials":[{"doubleSided":true,"extensions":{"KHR_materials_specular":{"specularFactor":0.7070580124855042},"KHR_materials_ior":{"ior":1}},"name":"leaf_paloagua.jpg","pbrMetallicRoughness":{"baseColorTexture":{"index":0,"texCoord":0},"metallicFactor":0,"roughnessFactor":0.626883864402771,"baseColorFactor":[1,1,1,1]},"emissiveFactor":[0,0,0],"alphaMode":"OPAQUE"},{"doubleSided":true,"name":"maceta","pbrMetallicRoughness":{"baseColorFactor":[0.4336160123348236,0.24790599942207336,0.08220499753952026,1],"metallicFactor":0,"roughnessFactor":0.6900347471237183},"emissiveFactor":[0,0,0],"alphaMode":"OPAQUE"},{"doubleSided":true,"extensions":{"KHR_materials_specular":{"specularFactor":0.41411399841308594},"KHR_materials_ior":{"ior":1}},"name":"tierra_maceta","pbrMetallicRoughness":{"baseColorFactor":[0.3140209913253784,0.23659099638462067,0.16750399768352509,1],"metallicFactor":0,"roughnessFactor":0.7699105143547058},"emissiveFactor":[0,0,0],"alphaMode":"OPAQUE"}],"meshes":[{"name":"leaf_Plane.010","primitives":[{"attributes":{"POSITION":0,"NORMAL":1,"TEXCOORD_0":2},"indices":3,"material":0,"mode":4}]},{"name":"maceta_Cylinder","primitives":[{"attributes":{"POSITION":4,"NORMAL":5},"indices":6,"material":1,"mode":4},{"attributes":{"POSITION":7,"NORMAL":8},"indices":9,"material":2,"mode":4}]}],"textures":[{"sampler":0,"source":0}],"images":[{"bufferView":10,"mimeType":"image/jpeg","name":"paloagua"}],"accessors":[{"bufferView":0,"componentType":5126,"count":671,"max":[0.2976509928703308,0.32330799102783203,-0.21244600415229797],"min":[-0.28893500566482544,-0.3289499878883362,-0.5776780247688293],"type":"VEC3","byteOffset":0},{"bufferView":1,"componentType":5126,"count":671,"type":"VEC3","byteOffset":0},{"bufferView":2,"componentType":5126,"count":671,"type":"VEC2","byteOffset":0},{"bufferView":3,"componentType":5123,"count":3036,"type":"SCALAR","byteOffset":0},{"bufferView":4,"componentType":5126,"count":705,"max":[0.15712399780750275,0.15712399780750275,0],"min":[-0.15712399780750275,-0.15712399780750275,-0.3014340102672577],"type":"VEC3","byteOffset":0},{"bufferView":5,"componentType":5126,"count":705,"type":"VEC3","byteOffset":0},{"bufferView":6,"componentType":5123,"count":4128,"type":"SCALAR","byteOffset":0},{"bufferView":7,"componentType":5126,"count":65,"max":[0.11919499933719635,0.11919499933719635,-0.22860600054264069],"min":[-0.11919499933719635,-0.11919499933719635,-0.2375430017709732],"type":"VEC3","byteOffset":0},{"bufferView":8,"componentType":5126,"count":65,"type":"VEC3","byteOffset":0},{"bufferView":9,"componentType":5123,"count":288,"type":"SCALAR","byteOffset":0}],"bufferViews":[{"buffer":0,"byteLength":8052,"byteOffset":0,"target":34962,"byteStride":12},{"buffer":0,"byteLength":8052,"byteOffset":8056,"target":34962,"byteStride":12},{"buffer":0,"byteLength":5368,"byteOffset":16112,"target":34962,"byteStride":8},{"buffer":0,"byteLength":6072,"byteOffset":21480,"target":34963},{"buffer":0,"byteLength":8460,"byteOffset":27552,"target":34962,"byteStride":12},{"buffer":0,"byteLength":8460,"byteOffset":36016,"target":34962,"byteStride":12},{"buffer":0,"byteLength":8256,"byteOffset":44480,"target":34963},{"buffer":0,"byteLength":780,"byteOffset":52736,"target":34962,"byteStride":12},{"buffer":0,"byteLength":780,"byteOffset":53520,"target":34962,"byteStride":12},{"buffer":0,"byteLength":576,"byteOffset":54304,"target":34963},{"buffer":0,"byteOffset":54880,"byteLength":13745}],"samplers":[{"magFilter":9729,"minFilter":9987,"wrapS":10497,"wrapT":10497}],"buffers":[{"name":"buffer","byteLength":68632,"uri":"data:application/octet-stream;base64,"}]}
